<?xml version="1.0" standalone="no"?>
<!DOCTYPE svg PUBLIC "-//W3C//DTD SVG 20010904//EN"
 "http://www.w3.org/TR/2001/REC-SVG-20010904/DTD/svg10.dtd">
<svg version="1.0" xmlns="http://www.w3.org/2000/svg"
 width="784.000000pt" height="784.000000pt" viewBox="0 0 784.000000 784.000000"
 preserveAspectRatio="xMidYMid meet">
<metadata>
Created by potrace 1.11, written by Peter Selinger 2001-2013
</metadata>
<g transform="translate(0.000000,784.000000) scale(0.100000,-0.100000)"
fill="#000000" stroke="none">
<path d="M245 4953 c-30 -8 -73 -52 -80 -84 -7 -30 12 -76 40 -99 10 -8 20
-22 24 -32 4 -10 161 -187 350 -394 l344 -375 43 43 c23 24 158 169 298 323
l256 280 -170 170 -170 170 -458 1 c-251 1 -466 0 -477 -3z"/>
<path d="M1893 4949 c-20 -6 -55 -35 -95 -80 -35 -39 -400 -438 -811 -887
-412 -449 -752 -826 -757 -837 -4 -12 -15 -27 -25 -35 -28 -23 -47 -69 -40
-99 3 -16 20 -41 36 -57 l30 -29 682 0 682 0 35 24 c42 28 19 4 429 466 l335
377 430 -436 431 -437 675 1 674 0 437 436 436 436 334 -377 c409 -462 387
-438 429 -466 l35 -24 682 0 682 0 30 29 c16 16 33 41 36 57 7 30 -12 76 -40
99 -10 8 -21 23 -25 35 -5 11 -345 388 -757 837 -411 449 -776 848 -811 887
-48 53 -72 73 -103 81 -26 7 -215 10 -568 8 -452 -3 -531 -5 -546 -18 -10 -8
-220 -243 -467 -522 -247 -280 -451 -508 -453 -508 -2 0 -206 228 -453 508
-247 279 -457 514 -467 522 -15 13 -94 15 -554 17 -313 1 -549 -2 -568 -8z"/>
<path d="M3395 4898 c-33 -35 -79 -86 -102 -114 l-42 -51 301 -334 c165 -184
320 -355 343 -381 l42 -47 305 347 c168 191 317 361 331 378 l26 31 -90 102
c-50 56 -104 108 -119 116 -24 13 -101 15 -482 15 l-452 0 -61 -62z"/>
<path d="M6695 4950 c-17 -6 -92 -72 -187 -167 l-157 -157 82 -86 c45 -47 184
-190 308 -318 l225 -232 334 365 c184 201 338 373 341 383 4 10 14 24 24 32
28 23 47 69 40 99 -3 16 -20 41 -36 57 l-30 29 -457 2 c-251 1 -470 -2 -487
-7z"/>
<path d="M2087 3383 l-307 -357 42 -43 c25 -26 58 -48 80 -54 24 -6 231 -9
569 -7 l530 3 56 59 c52 53 55 59 37 68 -10 6 -172 163 -359 349 l-341 339
-307 -357z"/>
<path d="M5112 3387 l-352 -352 55 -55 56 -55 529 -3 c337 -2 544 1 568 7 23
7 55 29 85 59 l48 48 -301 340 c-165 186 -309 345 -318 351 -16 11 -60 -30
-370 -340z"/>
</g>
</svg>
